<svg width="65" height="66" viewBox="0 0 65 66" fill="none" xmlns="http://www.w3.org/2000/svg">
<path d="M49.2011 54.9462H15.7983C13.0593 54.9462 10.833 52.72 10.833 49.9809V20.1893C10.833 17.4502 13.0593 15.224 15.7983 15.224H49.2011C51.9401 15.224 54.1663 17.4502 54.1663 20.1893V49.9809C54.1663 52.72 51.9401 54.9462 49.2011 54.9462ZM15.7983 17.9323C14.5543 17.9323 13.5413 18.9452 13.5413 20.1893V49.9809C13.5413 51.225 14.5543 52.2379 15.7983 52.2379H49.2011C50.4451 52.2379 51.458 51.225 51.458 49.9809V20.1893C51.458 18.9452 50.4451 17.9323 49.2011 17.9323H15.7983Z" fill="#CDF265"/>
<path d="M12.1875 26.0573H52.8125V28.7656H12.1875V26.0573Z" fill="#CDF265"/>
<path d="M19.8613 11.6129H22.5697V22.4462H19.8613V11.6129Z" fill="#CDF265"/>
<path d="M42.4307 11.6129H45.139V22.4462H42.4307V11.6129Z" fill="#CDF265"/>
<path d="M25.7074 47.3972L23.9434 45.3407L30.2628 39.924C30.725 39.5286 31.3895 39.4871 31.895 39.8247L33.6789 41.0146L39.2129 35.4805L41.1286 37.3962L34.8092 43.7157C34.3542 44.1743 33.6374 44.2429 33.1011 43.8854L31.2468 42.6486L25.7074 47.3972Z" fill="#CDF265"/>
<path d="M41.5279 42.3073H38.8196V37.7934H34.3057V35.0851H40.1737C40.9212 35.0851 41.5279 35.6918 41.5279 36.4393V42.3073Z" fill="#CDF265"/>
</svg>
