<svg width="54" height="49" xmlns="http://www.w3.org/2000/svg" xmlns:xlink="http://www.w3.org/1999/xlink" xml:space="preserve" overflow="hidden"><defs><clipPath id="clip0"><rect x="0" y="0" width="54" height="49"/></clipPath><clipPath id="clip1"><rect x="-1" y="0" width="52" height="49"/></clipPath></defs><g clip-path="url(#clip0)"><path d="M62.9573 18.3281 57.5625 18.3281 57.5625 39.2789 62.9573 39.2789 62.9573 18.3281Z" fill="#DFDFDF" fill-opacity="0.05" transform="scale(1.00446 1)"/><path d="M62.9573 9.96484 57.5625 9.96484 57.5625 15.3384 62.9573 15.3384 62.9573 9.96484Z" fill="#DFDFDF" fill-opacity="0.05" transform="scale(1.00446 1)"/><path d="M110.173 24.0575C112.013 22.5939 112.933 20.6284 112.933 18.203 112.933 15.8194 112.055 13.8539 110.34 12.3066 108.626 10.7594 106.535 9.96484 104.025 9.96484L92.4619 9.96484 92.4619 39.2792 104.883 39.2792C107.434 39.2792 109.608 38.4847 111.365 36.8956 113.121 35.3065 113.999 33.2574 113.999 30.7902 114.02 27.7793 112.724 25.5211 110.173 24.0575ZM98.2331 15.3594 104.004 15.3594C105.844 15.3594 107.141 16.7393 107.141 18.5793 107.141 20.4193 105.803 21.7993 104.004 21.7993L98.2331 21.7993 98.2331 15.3594ZM104.883 33.8638 98.2122 33.8638 98.2122 26.9429 104.883 26.9429C106.848 26.9429 108.27 28.4066 108.27 30.372 108.291 32.4002 106.869 33.8638 104.883 33.8638Z" fill="#DFDFDF" fill-opacity="0.05" transform="scale(1.00446 1)"/><path d="M86.0002 21.966 84.181 21.966 80.1871 28.8869 80.1871 28.9287 80.1662 28.9287 72.5549 28.9287 83.3446 9.94336 77.1552 9.94336 66.3027 28.9287 66.3027 34.2814 80.1871 34.2814 80.1871 39.2577 86.0002 39.2577 86.0002 34.2814 89.1367 34.2814 89.1367 28.9287 86.0002 28.9287 86.0002 21.966Z" fill="#DFDFDF" fill-opacity="0.05" transform="scale(1.00446 1)"/><g clip-path="url(#clip1)"><path d="M0 1.49291 0 47.5304C0 48.3464 0.655292 49.0037 1.46876 49.0037L22.6641 49.0037C23.1838 49.0037 23.6583 48.7317 23.9295 48.2784L50.4123 2.21827C50.9772 1.24357 50.2767 0.0195312 49.1469 0.0195312L1.46876 0.0195312C0.655292 0.0195312 0 0.676885 0 1.49291ZM18.7549 38.4861 11.14 38.4861 14.9587 31.8445C15.0943 31.6179 15.0943 31.3232 14.9587 31.0965L7.09523 17.4961 11.1174 10.4919 19.1842 10.4919 15.1621 17.4961 19.1842 24.5003 27.2511 10.4919 35.318 10.4919 19.4102 38.1234C19.2746 38.3501 19.0261 38.4861 18.7549 38.4861Z" fill="#DFDFDF" fill-opacity="0.05" transform="scale(1.00446 1)"/></g></g></svg>