<svg width="65" height="66" viewBox="0 0 65 66" fill="none" xmlns="http://www.w3.org/2000/svg">
<path d="M48.041 7.23145L49.3177 5.95473L51.8712 8.50817L50.5945 9.78489L48.041 7.23145Z" fill="#CDF265"/>
<path d="M55.3809 14.5728L56.6576 13.2961L59.211 15.8495L57.9343 17.1263L55.3809 14.5728Z" fill="#CDF265"/>
<path d="M55.3818 8.18878L57.9353 5.63534L59.212 6.91206L56.6586 9.4655L55.3818 8.18878Z" fill="#CDF265"/>
<path d="M18.9798 27.9802H16.2715C16.2715 23.4663 17.8947 19.3569 20.845 16.4066C23.9361 13.3155 28.0455 11.6129 32.4168 11.6129V14.3212C28.7677 14.3212 25.339 15.7422 22.7588 18.3223C20.3213 20.7598 18.9798 24.1904 18.9798 27.9802Z" fill="#CDF265"/>
<path d="M41.9793 54.9462H26.6321C25.8846 54.9462 25.2779 54.3395 25.2779 53.592V48.3035L21.4068 49.3544C21.1269 49.4627 20.7225 49.5295 20.2765 49.5295C18.0647 49.5295 16.2664 47.7312 16.2664 45.5212V40.5017H12.9821C11.7471 40.5017 10.7432 39.496 10.7432 38.2629C10.7432 37.7645 10.9815 37.3438 11.4852 36.5692L15.4791 30.777C15.9865 29.9862 16.2682 29.0112 16.2682 27.9892C16.2682 23.4717 17.8896 19.3623 20.8362 16.4156C21.2027 16.0473 21.5927 15.697 21.9827 15.3648C22.4143 15.0163 22.8223 14.7058 23.2484 14.4133C23.7215 14.1045 24.1494 13.8355 24.6171 13.5809C25.1352 13.3209 25.5758 13.1006 26.0344 12.9002C27.0076 12.4813 28.0855 12.1545 29.2429 11.927C29.725 11.8313 30.2107 11.7537 30.7162 11.6941C32.5489 11.4973 34.3779 11.6273 35.9614 11.9902L35.3547 14.6318C34.0005 14.3194 32.3647 14.2381 31.0177 14.3862C30.5989 14.4331 30.1818 14.4999 29.7665 14.583C28.7951 14.7726 27.905 15.0416 27.1141 15.3829C26.7025 15.5634 26.3034 15.7638 25.9026 15.9624C25.5018 16.1773 25.1371 16.412 24.7525 16.663C24.4112 16.8977 24.0591 17.1649 23.7089 17.4502C23.4001 17.7138 23.0679 18.0117 22.7519 18.3277C20.3144 20.7652 18.9747 24.194 18.9747 27.9892C18.9747 29.5312 18.545 31.0154 17.7325 32.2792L13.9282 37.7934H17.6223C18.3698 37.7934 18.9765 38.4001 18.9765 39.1476V45.5212C18.9765 46.2362 19.5597 46.8212 20.2783 46.8212C20.4083 46.8212 20.504 46.8067 20.5943 46.776L26.2782 45.2269C26.6844 45.1149 27.1196 45.2016 27.4536 45.458C27.7912 45.7144 27.9862 46.1116 27.9862 46.5341V52.2397H40.6251V44.7105C40.6251 41.8415 41.425 39.0302 42.9398 36.5783L45.2419 37.9992C43.9943 40.0215 43.3334 42.3434 43.3334 44.7087V53.592C43.3334 54.3395 42.7268 54.9462 41.9793 54.9462Z" fill="#CDF265"/>
<path d="M47.2565 33.2795H44.8263C43.6364 33.2795 42.4303 32.3533 42.4303 30.5875V28.2673C42.4303 27.5252 42.0945 26.8409 41.5546 26.4834C38.7831 24.6472 37.4217 21.3394 38.0879 18.0551C38.7018 15.0272 41.1285 12.5265 44.1257 11.835C46.621 11.259 49.1759 11.8295 51.1367 13.4094L49.4359 15.5165C48.1304 14.4657 46.417 14.0847 44.7342 14.4711C42.7535 14.9297 41.1502 16.5854 40.7439 18.5913C40.2907 20.823 41.1736 22.9825 43.0496 24.2247C44.3568 25.0914 45.1386 26.6026 45.1386 28.2673V30.5712H46.9442V28.3107C46.9442 26.617 47.7242 25.0895 49.0296 24.2265C50.5499 23.2226 51.4581 21.5452 51.4581 19.7379C51.4581 18.7069 51.1692 17.7048 50.6203 16.8418L52.9061 15.3883C53.7313 16.6883 54.1664 18.1923 54.1664 19.7379C54.1664 22.457 52.8032 24.9794 50.521 26.487C49.9847 26.8409 49.6525 27.5397 49.6525 28.3107V30.8836C49.6525 32.2034 48.5764 33.2795 47.2565 33.2795Z" fill="#CDF265"/>
</svg>
