<svg width="64" height="65" viewBox="0 0 64 65" fill="none" xmlns="http://www.w3.org/2000/svg">
<path d="M52.0003 27.4462H42.667V24.7795H50.667V16.7795H53.3337V26.1129C53.3337 26.8489 52.7363 27.4462 52.0003 27.4462Z" fill="#CDF265"/>
<path d="M13.3337 48.7795H10.667V39.4462C10.667 38.7102 11.2643 38.1129 12.0003 38.1129H21.3337V40.7795H13.3337V48.7795Z" fill="#CDF265"/>
<path d="M13.3299 31.6596L10.6846 31.3182L10.8552 29.9956C12.217 19.4213 21.3068 11.4462 32.0001 11.4462C40.8979 11.4462 49.3921 16.9004 52.6597 24.7084L53.1752 25.9387L50.7148 26.968L50.201 25.7378C47.337 18.8933 39.8526 14.1129 32.0001 14.1129C22.6437 14.1129 14.6917 21.0871 13.5006 30.3351L13.3299 31.6596Z" fill="#CDF265"/>
<path d="M32.0003 54.1129C23.1025 54.1129 14.6083 48.6586 11.3408 40.8506L10.8252 39.6204L13.2856 38.5911L13.7994 39.8213C16.6634 46.6658 24.1479 51.4462 32.0003 51.4462C41.3568 51.4462 49.3088 44.472 50.4999 35.224L50.6705 33.9013L53.3159 34.2426L53.1452 35.5653C51.7834 46.1378 42.6936 54.1129 32.0003 54.1129Z" fill="#CDF265"/>
<path d="M29.9025 47.0018C29.7496 47.0018 29.5949 46.9751 29.4438 46.9218C28.8571 46.7067 28.498 46.1129 28.5816 45.4942L30.034 34.5573H24.4447C23.9469 34.5573 23.49 34.28 23.2607 33.8373C23.0314 33.3947 23.0687 32.8631 23.3549 32.456L26.0216 28.6693L28.2029 30.2036L27.0136 31.8907H31.5558C31.9398 31.8907 32.306 32.056 32.5585 32.3458C32.8109 32.6356 32.9265 33.0178 32.8767 33.4L32.0163 39.8836L37.2198 31.7378L32.802 31.4427C32.4358 31.4178 32.0963 31.2436 31.8616 30.9591C31.6287 30.6765 31.522 30.3085 31.5683 29.944L32.2083 24.8987L29.81 28.2107L27.65 26.6462L33.1078 19.1085C33.4651 18.6142 34.1087 18.4258 34.6776 18.6516C35.2447 18.8756 35.5878 19.4551 35.5114 20.0596L34.3914 28.8773L39.6447 29.2276C40.1158 29.2596 40.5336 29.5369 40.7451 29.9565C40.9585 30.3778 40.9318 30.8791 40.6794 31.2756L31.026 46.3867C30.7771 46.7796 30.3469 47.0018 29.9025 47.0018Z" fill="#CDF265"/>
</svg>
